<?xml version="1.0" standalone="no"?>
<!DOCTYPE svg PUBLIC "-//W3C//DTD SVG 20010904//EN"
 "http://www.w3.org/TR/2001/REC-SVG-20010904/DTD/svg10.dtd">
<svg version="1.0" xmlns="http://www.w3.org/2000/svg"
 width="700.000000pt" height="700.000000pt" viewBox="0 0 700.000000 700.000000"
 preserveAspectRatio="xMidYMid meet">
<metadata>
Created by potrace 1.11, written by Peter Selinger 2001-2013
</metadata>
<g transform="translate(0.000000,700.000000) scale(0.100000,-0.100000)"
fill="#000000" stroke="none">
<path d="M3300 6994 c-548 -47 -931 -149 -1361 -363 -361 -180 -653 -395 -946
-694 -554 -569 -881 -1267 -975 -2082 -16 -142 -16 -568 0 -710 97 -848 453
-1578 1053 -2160 434 -421 944 -706 1574 -881 81 -22 290 -61 435 -81 191 -26
649 -26 840 0 428 58 790 167 1145 347 696 351 1232 890 1575 1585 231 468
343 925 357 1455 6 244 -5 416 -43 644 -102 617 -343 1157 -738 1651 -100 126
-391 417 -516 517 -533 425 -1132 675 -1805 754 -118 14 -507 26 -595 18z
m1690 -1724 l0 -350 510 0 511 0 -4 -1522 c-3 -1431 -4 -1527 -21 -1582 -56
-187 -184 -339 -351 -417 -134 -63 9 -59 -2130 -59 -2141 0 -2007 -3 -2141 60
-169 81 -294 229 -350 416 -17 56 -19 163 -21 1919 -2 1022 -1 1865 1 1872 4
11 383 13 2001 13 l1995 0 0 -350z"/>
<path d="M3450 4440 l0 -210 520 0 520 0 0 210 0 210 -520 0 -520 0 0 -210z"/>
<path d="M3450 3545 l0 -215 518 2 517 3 0 210 0 210 -517 3 -518 2 0 -215z"/>
<path d="M2243 2863 l-753 -3 0 -209 0 -208 1491 -8 c931 -5 1494 -4 1500 2 5
5 8 97 7 219 l-3 209 -745 0 c-410 0 -1084 -1 -1497 -2z"/>
</g>
</svg>
